<svg width="600" height="109" viewBox="0 0 600 109" fill="none" xmlns="http://www.w3.org/2000/svg">
<mask id="mask0_1127_6721" style="mask-type:alpha" maskUnits="userSpaceOnUse" x="0" y="0" width="600" height="109">
<path d="M0 24C0 10.7452 10.7452 0 24 0H576C589.255 0 600 10.7452 600 24V85C600 98.2548 589.255 109 576 109H24C10.7452 109 0 98.2548 0 85V24Z" fill="#8DCBFF"/>
</mask>
<g mask="url(#mask0_1127_6721)">
<path opacity="0.5" d="M104.161 59.0703C62.8017 59.0703 16.1539 34.0137 -2 21.4854V156H603V69.7523C593.528 68.1698 588.5 55 540.645 46.8057C442.5 37.5 425.251 37.5 370 37.5C314.749 37.5 155.86 59.0703 104.161 59.0703Z" fill="#12ABE5"/>
<path opacity="0.5" d="M131.798 32.5028C76.7722 7.52915 19.0052 10.506 -3 15.1161V155H603V47.5186C570.98 35.2688 485.99 11.6387 402.186 15.1161C297.431 19.4628 200.581 63.7198 131.798 32.5028Z" fill="#128DDD"/>
<path d="M118.447 36.3296C69.7944 33.5037 17.8771 49.5433 -2 57.9163V158H603V66.6138C591.548 64.5206 557.428 60.6481 512.566 61.904C456.489 63.474 357.762 81.0729 305.239 77.1481C252.716 73.2232 179.263 39.862 118.447 36.3296Z" fill="#0084F3"/>
<path opacity="0.5" d="M495.115 39.6142C523.568 27.2609 578.894 9.39086 603 2V158H-4V61.3909C11.2804 57.9594 49.4286 48.8 79.7786 39.6142C117.716 28.132 214.536 2 300.29 33.6751C386.045 65.3503 459.549 55.0558 495.115 39.6142Z" fill="#118DDC"/>
</g>
</svg>
